<?xml version="1.0" standalone="no"?>
<!DOCTYPE svg PUBLIC "-//W3C//DTD SVG 20010904//EN"
 "http://www.w3.org/TR/2001/REC-SVG-20010904/DTD/svg10.dtd">
<svg version="1.0" xmlns="http://www.w3.org/2000/svg"
 width="576.000000pt" height="576.000000pt" viewBox="0 0 576.000000 576.000000"
 preserveAspectRatio="xMidYMid meet">
<metadata>
Created by potrace 1.11, written by Peter Selinger 2001-2013
</metadata>
<g transform="translate(0.000000,576.000000) scale(0.100000,-0.100000)"
fill="#000000" stroke="none">
<path d="M223 5105 c-83 -25 -153 -84 -195 -165 l-23 -45 -2 -1760 c-1 -1247
1 -1767 9 -1785 6 -14 12 -31 14 -38 5 -26 86 -122 103 -122 6 0 11 -4 11 -9
0 -5 8 -11 18 -14 9 -3 37 -13 61 -22 24 -9 78 -18 120 -20 114 -6 219 -14
281 -20 30 -3 80 -8 110 -11 30 -2 72 -7 93 -9 20 -3 54 -7 75 -9 34 -5 121
-15 167 -22 11 -1 34 -5 50 -7 17 -3 50 -8 75 -11 43 -6 61 -9 120 -21 14 -2
39 -7 55 -10 138 -23 353 -73 500 -115 77 -22 147 -42 155 -45 66 -19 220 -75
282 -104 26 -11 49 -21 52 -21 3 0 38 -16 78 -36 83 -41 153 -51 203 -27 33
16 73 67 80 102 4 20 6 106 4 141 -1 8 -1 40 0 70 1 30 1 95 1 143 0 48 2 92
5 98 4 5 1 9 -5 9 -6 0 -8 4 -5 10 3 5 6 38 5 72 -1 35 0 79 1 98 0 19 1 41 0
48 -1 23 -2 137 -2 267 0 72 0 137 0 145 -1 8 -1 40 0 70 1 30 1 95 1 143 0
48 2 92 5 98 4 5 1 9 -5 9 -6 0 -8 4 -5 10 3 5 6 38 5 72 -1 35 0 79 1 98 0
19 1 41 0 48 -1 23 -2 137 -2 267 0 72 0 137 0 145 -1 8 -1 40 0 70 2 92 2
234 1 255 -2 27 -2 24 -1 170 1 72 1 155 0 185 0 30 0 60 1 65 1 6 1 25 0 44
-5 83 -5 161 0 161 4 0 4 156 -1 170 -1 3 -1 8 0 13 2 10 2 59 1 182 -1 55 -1
105 0 110 1 6 1 44 0 85 0 41 -1 82 -1 90 0 40 -24 101 -48 123 -61 59 -497
260 -631 292 -8 2 -62 17 -120 35 -58 17 -116 34 -130 36 -14 3 -59 14 -100
24 -75 19 -238 55 -295 65 -16 2 -57 10 -90 16 -33 6 -73 12 -90 14 -16 2 -39
6 -50 8 -18 4 -54 10 -150 23 -16 2 -55 7 -85 10 -30 4 -66 8 -80 9 -321 38
-563 50 -627 30z"/>
<path d="M5317 5114 c-2 -2 -39 -6 -83 -8 -43 -3 -99 -8 -124 -10 -25 -3 -72
-8 -105 -11 -33 -3 -73 -7 -90 -9 -16 -2 -59 -7 -95 -10 -36 -4 -72 -9 -80
-11 -8 -2 -37 -7 -65 -10 -27 -3 -61 -7 -75 -10 -14 -3 -41 -8 -60 -11 -19 -2
-46 -7 -60 -9 -14 -3 -38 -7 -55 -10 -16 -3 -41 -7 -55 -10 -26 -5 -161 -32
-195 -39 -11 -3 -49 -12 -85 -21 -36 -8 -73 -18 -83 -20 -10 -2 -27 -7 -37
-10 -10 -3 -27 -7 -37 -9 -31 -6 -193 -56 -294 -91 -232 -80 -503 -211 -558
-269 -23 -24 -54 -110 -44 -120 7 -6 6 -152 0 -164 -3 -4 -1 -16 3 -27 4 -11
4 -29 0 -41 -5 -11 -5 -39 0 -62 4 -23 5 -42 1 -42 -3 0 -5 -26 -3 -57 1 -32
2 -103 1 -158 0 -55 0 -107 0 -115 3 -46 0 -114 -5 -121 -3 -5 -2 -9 3 -9 4 0
6 -43 3 -96 -3 -52 -3 -102 1 -111 3 -8 2 -37 -1 -64 -4 -27 -4 -49 -1 -49 3
0 4 -43 1 -96 -3 -52 -3 -102 1 -111 3 -8 2 -37 -1 -64 -4 -27 -4 -49 -1 -49
3 0 4 -43 1 -96 -3 -52 -3 -102 1 -111 3 -8 2 -37 -1 -64 -4 -27 -2 -49 2 -49
5 0 7 -4 3 -9 -3 -6 -5 -41 -5 -78 1 -95 1 -92 -2 -151 -2 -28 -1 -52 2 -52 6
0 2 -170 -4 -187 -3 -7 -1 -15 5 -18 5 -4 7 -10 4 -15 -5 -8 -9 -143 -5 -165
1 -5 2 -13 2 -16 -1 -11 -2 -116 -2 -192 1 -42 -1 -80 -3 -85 -3 -4 -1 -16 3
-27 4 -11 4 -29 0 -41 -5 -11 -5 -39 0 -62 4 -23 5 -42 1 -42 -3 0 -5 -26 -3
-57 1 -32 2 -103 1 -158 0 -55 0 -107 0 -115 3 -46 0 -114 -5 -121 -3 -5 0 -9
6 -9 6 0 9 -4 6 -8 -5 -8 -7 -136 -5 -250 2 -58 24 -100 72 -136 45 -33 125
-27 212 16 180 91 454 183 775 263 20 5 209 44 240 50 14 3 35 7 46 9 12 2 37
7 55 10 19 3 45 8 58 10 12 3 42 8 65 10 22 3 52 8 66 10 22 4 117 17 233 31
20 3 54 7 75 10 20 3 62 7 92 10 30 3 78 7 105 9 87 8 197 17 280 21 44 3 91
8 105 11 14 4 27 8 30 9 3 0 23 10 45 22 71 37 134 114 154 188 4 11 6 812 6
1780 l0 1760 -24 45 c-33 64 -88 117 -151 148 -48 23 -69 26 -157 28 -57 0
-104 -1 -106 -2z"/>
</g>
</svg>
